<svg width="40" height="40" viewBox="0 0 40 40" fill="none" xmlns="http://www.w3.org/2000/svg">
<path d="M20 0C8.97287 0 0 8.97094 0 20C0 31.0291 8.97287 40 20 40C31.0271 40 40 31.0291 40 20C40 8.97094 31.0271 0 20 0ZM20 38.6678C9.70752 38.6678 1.33458 30.2931 1.33458 20C1.33458 9.70687 9.70752 1.33217 20 1.33217C30.2925 1.33217 38.6654 9.70687 38.6654 20C38.6654 30.2931 30.2925 38.6678 20 38.6678Z" fill="#1D97E2"/>
<path d="M24.3655 8.77386H21.0377C16.7995 8.73145 16.2582 11.3546 16.2582 14.1936V16.258H14.3873C14.3027 16.2467 14.2167 16.255 14.1359 16.2824C14.0551 16.3097 13.9817 16.3553 13.9213 16.4156C13.861 16.476 13.8154 16.5494 13.788 16.6302C13.7607 16.711 13.7523 16.7971 13.7636 16.8816V20.6237C13.7523 20.7082 13.7607 20.7943 13.788 20.8751C13.8154 20.9559 13.861 21.0293 13.9213 21.0897C13.9817 21.15 14.0551 21.1956 14.1359 21.2229C14.2167 21.2503 14.3027 21.2586 14.3873 21.2473H16.2582V30.6025C16.2478 30.6872 16.2569 30.7732 16.2848 30.8538C16.3127 30.9345 16.3587 31.0077 16.4192 31.0679C16.4798 31.128 16.5532 31.1736 16.6341 31.201C16.7149 31.2285 16.8009 31.237 16.8856 31.2261H20.696C21.0639 31.2686 21.362 30.9704 21.2448 30.6025L21.2473 21.2473H24.3655C24.45 21.2586 24.536 21.2503 24.6169 21.2229C24.6977 21.1956 24.7711 21.15 24.8314 21.0897C24.8917 21.0293 24.9373 20.9559 24.9647 20.8751C24.992 20.7943 25.0004 20.7082 24.9891 20.6237V16.8816C25.0004 16.7971 24.992 16.711 24.9647 16.6302C24.9373 16.5494 24.8917 16.476 24.8314 16.4156C24.7711 16.3553 24.6977 16.3097 24.6169 16.2824C24.536 16.255 24.45 16.2467 24.3655 16.258H21.2435L21.2473 14.3869C21.3683 13.5899 21.3683 13.7196 22.1079 13.7633H24.3393C24.5126 13.7246 24.6972 13.7458 24.8269 13.6198C24.9567 13.4938 25.0315 13.3217 24.9878 13.1396V9.39753C24.9994 9.31303 24.9912 9.22702 24.964 9.14619C24.9368 9.06536 24.8913 8.9919 24.8311 8.93154C24.7709 8.87117 24.6975 8.82554 24.6167 8.79819C24.536 8.77084 24.45 8.76251 24.3655 8.77386ZM23.6982 12.4461L22.1341 12.3862C20.1971 12.3862 20.0349 13.4377 20.0349 14.5142L20.0299 16.8791C20.0298 16.9667 20.0469 17.0535 20.0803 17.1344C20.1137 17.2154 20.1627 17.2889 20.2246 17.3509C20.2864 17.4129 20.3599 17.4621 20.4408 17.4956C20.5217 17.5292 20.6084 17.5465 20.696 17.5465H23.7418V19.9563H20.6985C20.5217 19.9563 20.3522 20.0265 20.2271 20.1514C20.102 20.2762 20.0315 20.4457 20.0312 20.6224L20.0299 29.9788H17.5055V20.6237C17.5055 20.2557 17.2548 19.9576 16.8856 19.9576H15.0109V17.5477H16.8856C16.9731 17.5478 17.0598 17.5307 17.1407 17.4973C17.2216 17.464 17.2951 17.4149 17.357 17.3531C17.4818 17.2271 17.5042 17.0575 17.5042 16.8804V14.1923C17.5042 11.3958 18.0692 10.0636 21.0365 10.0636H23.6969V12.4461H23.6982Z" fill="#1D97E2"/>
</svg>
