<svg width="40" height="40" viewBox="0 0 40 40" fill="none" xmlns="http://www.w3.org/2000/svg">
<path d="M34.6055 20.8477C35.2617 19.9805 35.625 18.918 35.625 17.8125C35.625 16.0586 34.6445 14.3984 33.0664 13.4727C32.6601 13.2344 32.1976 13.1089 31.7266 13.1094H22.3594L22.5938 8.30859C22.6484 7.14844 22.2383 6.04688 21.4414 5.20703C21.0503 4.79308 20.5785 4.46372 20.0551 4.23932C19.5318 4.01491 18.9679 3.90023 18.3984 3.90234C16.3672 3.90234 14.5703 5.26953 14.0312 7.22656L10.6758 19.375H5.625C4.93359 19.375 4.375 19.9336 4.375 20.625V34.8437C4.375 35.5352 4.93359 36.0937 5.625 36.0937H29.1133C29.4727 36.0937 29.8242 36.0234 30.1484 35.8828C32.0078 35.0898 33.207 33.2734 33.207 31.2578C33.207 30.7656 33.1367 30.2812 32.9961 29.8125C33.6523 28.9453 34.0156 27.8828 34.0156 26.7773C34.0156 26.2852 33.9453 25.8008 33.8047 25.332C34.4609 24.4648 34.8242 23.4023 34.8242 22.2969C34.8164 21.8047 34.7461 21.3164 34.6055 20.8477ZM7.1875 33.2812V22.1875H10.3516V33.2812H7.1875ZM32.0469 19.4922L31.1914 20.2344L31.7344 21.2266C31.9133 21.5534 32.006 21.9204 32.0039 22.293C32.0039 22.9375 31.7227 23.5508 31.2383 23.9727L30.3828 24.7148L30.9258 25.707C31.1047 26.0339 31.1974 26.4009 31.1953 26.7734C31.1953 27.418 30.9141 28.0312 30.4297 28.4531L29.5742 29.1953L30.1172 30.1875C30.2961 30.5143 30.3888 30.8813 30.3867 31.2539C30.3867 32.1289 29.8711 32.918 29.0742 33.2773H12.8516V22.0625L16.7383 7.98047C16.8385 7.61953 17.0536 7.3011 17.3511 7.07342C17.6486 6.84575 18.0121 6.72123 18.3867 6.71875C18.6836 6.71875 18.9766 6.80469 19.2109 6.98047C19.5977 7.26953 19.8047 7.70703 19.7812 8.17188L19.4062 15.9219H31.6875C32.3828 16.3477 32.8125 17.0664 32.8125 17.8125C32.8125 18.457 32.5312 19.0664 32.0469 19.4922Z" fill="#1D97E2"/>
</svg>
