<?xml version="1.0" encoding="UTF-8" standalone="no"?><!DOCTYPE svg PUBLIC "-//W3C//DTD SVG 1.1//EN" "http://www.w3.org/Graphics/SVG/1.1/DTD/svg11.dtd"><svg width="100%" height="100%" viewBox="0 0 227 138" version="1.1" xmlns="http://www.w3.org/2000/svg" xmlns:xlink="http://www.w3.org/1999/xlink" xml:space="preserve" xmlns:serif="http://www.serif.com/" style="fill-rule:evenodd;clip-rule:evenodd;"><g><path d="M5.466,30.111c0.67,-9.989 8.623,-17.944 18.612,-18.616l170.037,-11.446c10.691,-0.72 20.049,7.113 21.223,17.763l10.806,98.029c1.334,12.097 -8.356,22.572 -20.521,22.181l-186.252,-5.981c-11.314,-0.363 -20.071,-10.034 -19.313,-21.328l5.408,-80.602Z" style="fill:#fff;fill-rule:nonzero;"/><path d="M7.461,30.244c0.604,-8.99 7.761,-16.149 16.751,-16.754l170.038,-11.446c9.621,-0.647 18.044,6.402 19.1,15.987l10.806,98.029c1.201,10.888 -7.521,20.315 -18.469,19.963l-186.252,-5.981c-10.182,-0.326 -18.064,-9.031 -17.382,-19.195l5.408,-80.603Z" style="fill:none;fill-rule:nonzero;stroke:#1d97e2;stroke-opacity:0.05;stroke-width:4px;"/></g></svg>