<?xml version="1.0" encoding="UTF-8" standalone="no"?>
<!DOCTYPE svg PUBLIC "-//W3C//DTD SVG 1.1//EN" "http://www.w3.org/Graphics/SVG/1.1/DTD/svg11.dtd">
<svg width="116px" height="71px" version="1.1" xmlns="http://www.w3.org/2000/svg" xmlns:xlink="http://www.w3.org/1999/xlink" xml:space="preserve" xmlns:serif="http://www.serif.com/" style="fill-rule:evenodd;clip-rule:evenodd;">
    <g transform="matrix(1,0,0,1,-20.643,-10.6158)">
        <path d="M23.503,25.873C23.837,20.879 27.813,16.901 32.807,16.564L120.517,10.645C125.864,10.285 130.544,14.203 131.13,19.53L136.74,70.541C137.405,76.59 132.56,81.825 126.478,81.629L30.347,78.535C24.692,78.353 20.314,73.518 20.692,67.872L23.503,25.873Z" style="fill:white;fill-rule:nonzero;"/>
        <path d="M32.875,17.562L120.584,11.643C125.396,11.319 129.609,14.845 130.136,19.639L135.746,70.65C136.344,76.094 131.984,80.806 126.51,80.63L30.38,77.536C25.289,77.372 21.349,73.021 21.689,67.939L24.501,25.94C24.802,21.445 28.38,17.865 32.875,17.562Z" style="fill:none;fill-rule:nonzero;stroke:rgb(222,236,240);stroke-opacity:0.5;stroke-width:2px;"/>
    </g>
</svg>
