<svg width="40" height="40" viewBox="0 0 40 40" fill="none" xmlns="http://www.w3.org/2000/svg">
<path d="M31.25 22.5L29.4825 24.2675L32.7087 27.5H22.5C21.1739 27.5 19.9021 28.0268 18.9645 28.9645C18.0268 29.9021 17.5 31.1739 17.5 32.5C17.5 33.8261 18.0268 35.0979 18.9645 36.0355C19.9021 36.9732 21.1739 37.5 22.5 37.5H25V35H22.5C21.837 35 21.2011 34.7366 20.7322 34.2678C20.2634 33.7989 20 33.163 20 32.5C20 31.837 20.2634 31.2011 20.7322 30.7322C21.2011 30.2634 21.837 30 22.5 30H32.7087L29.48 33.2337L31.25 35L37.5 28.75L31.25 22.5Z" fill="#1D97E2"/>
<path d="M31.25 22.5L29.4825 24.2675L32.7087 27.5H22.5C21.1739 27.5 19.9021 28.0268 18.9645 28.9645C18.0268 29.9021 17.5 31.1739 17.5 32.5C17.5 33.8261 18.0268 35.0979 18.9645 36.0355C19.9021 36.9732 21.1739 37.5 22.5 37.5H25V35H22.5C21.837 35 21.2011 34.7366 20.7322 34.2678C20.2634 33.7989 20 33.163 20 32.5C20 31.837 20.2634 31.2011 20.7322 30.7322C21.2011 30.2634 21.837 30 22.5 30H32.7087L29.48 33.2337L31.25 35L37.5 28.75L31.25 22.5Z" stroke="#1D97E2"/>
<path d="M12.5 27.5H5L4.99625 8.6325L19.2887 18.5275C19.4977 18.6721 19.7459 18.7496 20 18.7496C20.2541 18.7496 20.5023 18.6721 20.7113 18.5275L35 8.6375V20H37.5V7.5C37.4993 6.83716 37.2357 6.20166 36.767 5.73296C36.2983 5.26427 35.6628 5.00066 35 5H5C4.33761 5 3.70229 5.26288 3.23356 5.73091C2.76482 6.19894 2.50099 6.83386 2.5 7.49625V27.5C2.50099 28.1627 2.7647 28.798 3.23333 29.2667C3.70195 29.7353 4.33726 29.999 5 30H12.5V27.5ZM32.2487 7.5L20 15.98L7.75125 7.5H32.2487Z" fill="#1D97E2"/>
<path d="M12.5 27.5H5L4.99625 8.6325L19.2887 18.5275C19.4977 18.6721 19.7459 18.7496 20 18.7496C20.2541 18.7496 20.5023 18.6721 20.7113 18.5275L35 8.6375V20H37.5V7.5C37.4993 6.83716 37.2357 6.20166 36.767 5.73296C36.2983 5.26427 35.6628 5.00066 35 5H5C4.33761 5 3.70229 5.26288 3.23356 5.73091C2.76482 6.19894 2.50099 6.83386 2.5 7.49625V27.5C2.50099 28.1627 2.7647 28.798 3.23333 29.2667C3.70195 29.7353 4.33726 29.999 5 30H12.5V27.5ZM32.2487 7.5L20 15.98L7.75125 7.5H32.2487Z" stroke="#1D97E2"/>
</svg>
