<?xml version="1.0" encoding="UTF-8" standalone="no"?>
<!DOCTYPE svg PUBLIC "-//W3C//DTD SVG 1.1//EN" "http://www.w3.org/Graphics/SVG/1.1/DTD/svg11.dtd">
<svg width="40px" height="40px" version="1.1" xmlns="http://www.w3.org/2000/svg" xmlns:xlink="http://www.w3.org/1999/xlink" xml:space="preserve" xmlns:serif="http://www.serif.com/" style="fill-rule:evenodd;clip-rule:evenodd;stroke-linejoin:round;stroke-miterlimit:2;">
    <path d="M20,2.5C10.25,2.5 2.5,10.25 2.5,20C2.5,29.75 10.25,37.5 20,37.5C29.75,37.5 37.5,29.75 37.5,20C37.5,10.25 29.75,2.5 20,2.5ZM20,35C11.75,35 5,28.25 5,20C5,11.75 11.75,5 20,5C28.25,5 35,11.75 35,20C35,28.25 28.25,35 20,35Z" style="fill-rule:nonzero;"/>
    <path d="M26.75,28.75L20,22L13.25,28.75L11.25,26.75L18,20L11.25,13.25L13.25,11.25L20,18L26.75,11.25L28.75,13.25L22,20L28.75,26.75L26.75,28.75Z" style="fill-rule:nonzero;"/>
</svg>
